<svg xmlns="http://www.w3.org/2000/svg" width="34.875" height="34.875" viewBox="1213.063 1590.5 34.875 34.875"><path d="M1230.5 1590.5c9.633 0 17.438 7.805 17.438 17.438 0 9.632-7.805 17.437-17.438 17.437s-17.438-7.805-17.438-17.438c0-9.632 7.805-17.437 17.438-17.437Zm-8.156 20.531h8.156v4.985c0 .753.914 1.132 1.441.598l8.037-8.079a.836.836 0 0 0 0-1.188l-8.037-8.086c-.534-.534-1.441-.155-1.441.598v4.985h-8.156a.846.846 0 0 0-.844.843v4.5c0 .465.38.844.844.844Z" fill="#d272a8" fill-rule="evenodd" data-name="Icon awesome-arrow-alt-circle-right"/></svg>