<svg xmlns="http://www.w3.org/2000/svg" width="34.875" height="34.875" viewBox="166.625 1590.5 34.875 34.875"><path d="M184.063 1590.5c-9.633 0-17.438 7.805-17.438 17.438 0 9.632 7.805 17.437 17.438 17.437 9.632 0 17.437-7.805 17.437-17.438 0-9.632-7.805-17.437-17.438-17.437Zm8.156 20.531h-8.156v4.985c0 .753-.915 1.132-1.442.598l-8.037-8.079a.836.836 0 0 1 0-1.188l8.037-8.086c.534-.534 1.441-.155 1.441.598v4.985h8.157c.464 0 .844.38.844.843v4.5c0 .465-.38.844-.844.844Z" fill="#d272a8" fill-rule="evenodd" data-name="Icon awesome-arrow-alt-circle-right"/></svg>