<svg xmlns="http://www.w3.org/2000/svg" width="101" height="101" viewBox="223 1053 101 101"><g data-name="CompositeLayer"><path d="M273.5 1053c27.89 0 50.5 22.61 50.5 50.5s-22.61 50.5-50.5 50.5-50.5-22.61-50.5-50.5 22.61-50.5 50.5-50.5Z" fill="#c72179" fill-rule="evenodd" data-name="Path 3428"/><path d="M232 1103.9a42 42 0 1 1 0 .1z" fill="#fff" fill-rule="evenodd" data-name="Ellipse 18"/><path d="M292.552 1098.72c-5.255-1.65-11.336 1.732-16.236 3.308-.48.154-.966.294-1.455.421-3.385.876-6.988 1.088-10.427.511-3.45-.578-6.942-2.744-10.406-1-2.541 1.279-4.166 3.957-4.166 6.756 0 9.32 8.72 12.54 16.419 14.016 6.487 1.243 16.795 1.798 24.231-1.302 4.91-2.047 8.567-5.688 9.044-11.775.382-4.884-2.226-9.435-7.004-10.935Z" fill="#fff" fill-rule="evenodd" data-name="Path 16827"/><g data-name="svgexport-17 (22)"><path d="M292.552 1098.72c-5.255-1.65-11.336 1.732-16.236 3.308-.48.154-.966.294-1.455.421-3.385.876-6.988 1.088-10.427.511-3.45-.578-6.942-2.744-10.406-1-2.541 1.279-4.166 3.957-4.166 6.756 0 9.32 8.72 12.54 16.419 14.016 6.487 1.243 16.795 1.798 24.231-1.302 4.91-2.047 8.567-5.688 9.044-11.775.382-4.884-2.226-9.435-7.004-10.935Z" fill="#fff" fill-rule="evenodd" data-name="Path 16827"/><path d="m278.136 1081.812 4.996.999-3.218-1.932a13.912 13.912 0 0 0-11.4-1.32l-13.979 4.472a1.763 1.763 0 1 0 1.094 3.35l15.377-5.125a13.92 13.92 0 0 1 7.13-.444Z" fill="#5c4124" fill-rule="evenodd" data-name="Path 16828"/><path d="M254.028 1104.5c3.464-1.743 6.956.423 10.406 1.002 3.44.576 7.043.364 10.427-.512.49-.126.975-.267 1.455-.421 4.9-1.576 10.98-4.958 16.236-3.308 4.05 1.272 6.532 4.736 6.965 8.735.011-.115.03-.225.039-.342.382-4.883-2.226-9.434-7.004-10.934-5.255-1.65-11.336 1.732-16.236 3.308-.48.154-.966.294-1.455.421-3.385.876-6.988 1.088-10.427.511-3.45-.578-6.942-2.744-10.406-1-2.541 1.279-4.166 3.957-4.166 6.756 0 .51.031.997.081 1.47.354-2.393 1.87-4.57 4.085-5.685Z" fill="#d1d1d1" fill-rule="evenodd" data-name="Path 16829"/><path d="M280.521 1092.277c-2.131-1.635-4.724-2.386-7.347-2.786-2.613-.399-5.312-.51-7.877.132a11.444 11.444 0 0 0-4.806 2.51 10.614 10.614 0 0 0-1.801 2.067c-1.136 1.71-1.83 4.317-.415 6.129.69.884 1.734 1.44 2.793 1.756 1.125.333 2.248.687 3.366.875 3.937.66 8.09.287 11.882-.932 3.895-1.253 7-2.823 10.105-5.561-2.436-.659-3.987-2.723-5.9-4.19Z" fill="#fbc997" fill-rule="evenodd" data-name="Path 16830"/><path d="M259.207 1094.328a10.586 10.586 0 0 1 2.117-1.741 11.438 11.438 0 0 1 5.155-1.68c2.635-.209 5.278.346 7.79 1.171 2.52.829 4.953 1.998 6.786 3.963.807.865 1.504 1.856 2.275 2.766a25.927 25.927 0 0 0 3.09-2.34c-2.437-.658-3.988-2.722-5.9-4.189-2.131-1.635-4.724-2.386-7.347-2.786-2.613-.399-5.312-.51-7.877.132a11.444 11.444 0 0 0-4.806 2.51 10.643 10.643 0 0 0-1.8 2.067c-.574.863-1.034 1.955-1.168 3.058.303-1.106.953-2.149 1.685-2.93Z" fill="#fbc188" fill-rule="evenodd" data-name="Path 16831"/><path d="M266.119 1123.579a58.316 58.316 0 0 0 10.75 1.01c4.855 0 9.859-.647 13.974-2.364 5.894-2.458 9.114-6.665 9.572-12.504.432-5.507-2.624-10.26-7.605-11.824-2.132-.67-4.363-.573-6.579-.114l.76-.67a.862.862 0 0 0-.344-1.479c-1.516-.41-2.68-1.469-3.912-2.59-.538-.49-1.094-.996-1.688-1.451-1.97-1.51-4.43-2.45-7.742-2.954-3.186-.487-5.874-.438-8.216.147-3.966.992-7.1 3.795-8.383 7.495l1.63.565c1.091-3.149 3.772-5.537 7.17-6.387 2.117-.53 4.582-.569 7.538-.116 3.015.46 5.224 1.291 6.954 2.618.536.411 1.041.871 1.577 1.358.98.893 1.987 1.808 3.218 2.435l-2.42 2.133c-.998.348-1.98.722-2.932 1.086-1.192.457-2.318.888-3.388 1.233-3.781 1.216-7.75 1.528-11.476.903-.94-.158-1.883-.44-2.881-.738a73.78 73.78 0 0 0-1.174-.343c-.483-.249-1.676-.994-2.27-1.945l-1.462.914c.095.152.205.293.316.433-1.14-.026-2.293.168-3.465.758-2.82 1.42-4.641 4.375-4.641 7.528 0 11.583 12.885 14.052 17.119 14.863Zm-11.703-20.85c.82-.413 1.653-.573 2.5-.573 1.052 0 2.128.247 3.23.558-.101.658-.383 1.687-1.187 2.09l.771 1.541c1.373-.686 1.888-2.133 2.083-3.142.312.092.626.182.943.266-.088.738-.39 2.175-1.434 3.22l1.219 1.218c1.326-1.325 1.762-3.06 1.905-4.077.52.084 1.045.15 1.573.2.077 1.033.045 3.087-1.211 4.345l1.219 1.219c1.652-1.653 1.8-4.083 1.728-5.465.406.01.812.017 1.22.008.302.965.713 3.095-.79 4.772l1.284 1.15c1.88-2.096 1.636-4.598 1.268-6.025.296-.027.593-.06.89-.097.103 1.677.41 5.008 1.267 6.413l1.472-.9c-.577-.943-.913-3.781-1.029-5.78.218-.04.434-.09.651-.136.075 1.524.55 4.204 2.784 6.107l1.118-1.312c-1.92-1.635-2.174-4.122-2.187-5.226.293-.083.587-.16.877-.254h.003c.261 1.578 1.14 4.355 4.106 5.586l.66-1.593c-2.405-.998-2.975-3.448-3.111-4.57.358-.13.73-.274 1.098-.413.358 1.537 1.506 3.62 4.276 4.536l.541-1.637c-2.444-.808-3.035-2.667-3.18-3.52 3.723-1.414 7.816-2.795 11.322-1.694 4.198 1.32 6.77 5.355 6.403 10.044-.404 5.142-3.269 8.86-8.516 11.048-7.027 2.93-16.869 2.568-23.737 1.252-10.726-2.057-15.721-6.241-15.721-13.172a6.758 6.758 0 0 1 3.692-5.987Zm44.834-26.21-7.808 7.807 5.705-9.335-1.471-.899-7.177 11.743a10.667 10.667 0 0 0-2.528-.081.862.862 0 0 0 .096 1.718c.474 0 .858.21 1.153.456l-1.027 1.681a.862.862 0 0 0 1.346 1.059l.606-.606c.059.761.023 1.83-.328 3.236l1.672.418c.65-2.605.392-4.306.153-5.152l.466-.466c.393.192.76.428 1.063.736.825.835 1.14 2.081.937 3.704l1.71.213c.272-2.172-.206-3.898-1.42-5.129a5.332 5.332 0 0 0-1.017-.797l9.087-9.087-1.218-1.22Zm-18.892 3.621a14.782 14.782 0 0 0-12.107-1.402l-13.978 4.473a2.63 2.63 0 0 0-1.746 3.136 2.626 2.626 0 0 0 3.376 1.853l15.378-5.126a13.062 13.062 0 0 1 6.687-.417l4.996 1a.861.861 0 0 0 .613-1.585l-3.22-1.932Zm-9.624 1.298-15.377 5.126a.89.89 0 0 1-.718-.065.903.903 0 0 1 .159-1.646l13.978-4.473a13.05 13.05 0 0 1 9.414.564 14.804 14.804 0 0 0-7.456.494Z" fill-rule="evenodd" data-name="Path 16832"/></g></g></svg>