<svg xmlns="http://www.w3.org/2000/svg" width="43" height="45" viewBox="323 4213.95 43 45"><g data-name="CompositeLayer"><path d="M323 4236.4a21.5 22.5 0 1 1 0 .1z" fill="#fff" fill-rule="evenodd" data-name="Ellipse 9"/><path d="M347.56 4255.353v-17.36h5.825l.874-6.769h-6.7v-4.32c0-1.959.543-3.294 3.355-3.294l3.58-.001v-6.054c-.619-.08-2.744-.265-5.218-.265-5.167 0-8.704 3.154-8.704 8.944v4.99h-5.842v6.768h5.842v17.36h6.988Z" fill="#a1a1a1" fill-rule="evenodd" data-name="f_1_"/><g data-name="facebook-app-symbol"><path d="M347.56 4255.353v-17.36h5.825l.874-6.769h-6.7v-4.32c0-1.959.543-3.294 3.355-3.294l3.58-.001v-6.054c-.619-.08-2.744-.265-5.218-.265-5.167 0-8.704 3.154-8.704 8.944v4.99h-5.842v6.768h5.842v17.36h6.988Z" fill="#a1a1a1" fill-rule="evenodd" data-name="f_1_"/></g></g></svg>