<svg xmlns="http://www.w3.org/2000/svg" width="101" height="101" viewBox="901 1053 101 101"><g data-name="CompositeLayer"><path d="M951.5 1053c27.89 0 50.5 22.61 50.5 50.5s-22.61 50.5-50.5 50.5-50.5-22.61-50.5-50.5 22.61-50.5 50.5-50.5Z" fill="#c72179" fill-rule="evenodd" data-name="Path 3428"/><path d="M910 1103.9a42 42 0 1 1 0 .1z" fill="#fff" fill-rule="evenodd" data-name="Ellipse 18"/><path d="m958.814 1128.981-10.564-8.353a5.078 5.078 0 0 1-1.943-3.946c-.073-6.9-1.103-19.532-2.701-28.728a.84.84 0 1 0-1.655.288c1.584 9.112 2.604 21.624 2.676 28.457a6.75 6.75 0 0 0 2.581 5.248l10.566 8.353a.75.75 0 0 1-.714 1.29c-2.326-.829-6.66-2.344-9.56-3.179-1.84-.531-3.378-.675-4.865-.813-1.016-.095-1.976-.185-2.996-.394-.771-.158-1.144-.839-1.32-1.383-.418-1.283-.208-3.385 1.239-4.97a.84.84 0 0 0 .209-.437c.26-1.664-1.288-10.586-3.512-14.57-3.72-6.666-4.535-10.9-2.906-15.1a.84.84 0 0 0-1.279-.983c-.843.615-3.614 2.677-5.732 4.255a.84.84 0 1 0 1.005 1.347c1.246-.93 2.494-1.858 3.742-2.785-.845 4.567.87 9.01 3.703 14.085 2.07 3.707 3.351 11.597 3.333 13.28-1.508 1.802-2.071 4.336-1.4 6.398.438 1.348 1.379 2.263 2.581 2.51 1.11.227 2.16.325 3.177.42 1.41.13 2.866.267 4.556.754 2.856.823 7.153 2.325 9.459 3.147.262.094.539.142.817.142a2.436 2.436 0 0 0 2.333-1.765 2.417 2.417 0 0 0-.83-2.568Zm-31.724-49.55c4.9-1.525 9.75-2.685 12.026-.851.238.192 1.1 1.217 2.2 6.36a.84.84 0 1 0 1.643-.351c-1.174-5.49-2.154-6.806-2.789-7.318-2.73-2.198-7.403-1.367-13.58.557a.84.84 0 0 0 .5 1.604Zm43.994 19.86a.84.84 0 0 0 .79-1.127l-1.616-4.437a.84.84 0 1 0-1.578.575l1.615 4.437a.84.84 0 0 0 .79.553Zm-5.483-.552a.84.84 0 1 0 1.579-.575l-1.615-4.437a.84.84 0 1 0-1.58.575l1.616 4.437Z" fill-rule="evenodd" data-name="Path 16786"/><g data-name="svgexport-17 (19)"><path d="M958.836 1131.32a1.586 1.586 0 0 1-2.059 1.061c-2.313-.824-6.634-2.335-9.51-3.163-3.003-.867-5.213-.661-7.797-1.19-2.582-.53-3.013-5.026-.533-7.743.212-1.358-1.223-10.104-3.416-14.031-3.528-6.323-4.832-10.976-2.956-15.814-.78.57-3.345 2.475-5.725 4.25v-16.06c5.533-1.723 10.305-2.716 12.804-.704 3.072 2.475 5.702 27.273 5.823 38.764a5.942 5.942 0 0 0 2.262 4.597l10.564 8.353c.505.398.72 1.061.543 1.68Z" fill="#f9c295" fill-rule="evenodd" data-name="Path 16779"/><path d="m958.293 1129.64-10.564-8.352a5.942 5.942 0 0 1-2.262-4.598c-.12-11.49-2.751-36.289-5.823-38.764-1.272-1.024-3.133-1.269-5.383-1.036 1.031.14 1.916.469 2.62 1.036 3.072 2.475 5.702 27.274 5.823 38.764a5.942 5.942 0 0 0 2.262 4.598l10.564 8.352a1.585 1.585 0 0 1 .154 2.354c.397.14.766.27 1.093.387a1.586 1.586 0 0 0 1.516-2.74Z" fill="#e8a26a" fill-rule="evenodd" data-name="Path 16780"/><path d="M980.56 1098.13a1.57 1.57 0 0 0 .06-2.1c-1.76-2.069-5.666-6.43-7.882-7.11-3.373-1.033-13.63.506-17.335 1.116a1.616 1.616 0 0 0-1.353 1.595v10.722c0 .893.724 1.617 1.617 1.617h12.631c.696 0 1.3.481 1.455 1.16l3.013 13.176a3.09 3.09 0 0 0 6.026-1.378l-2.837-12.405a2.398 2.398 0 0 1 .601-2.188l4.004-4.205Z" fill="#d8e6f0" fill-rule="evenodd" data-name="Path 16781"/><path d="M980.56 1098.13a1.57 1.57 0 0 0 .06-2.1c-1.76-2.069-5.666-6.43-7.882-7.11-1.085-.332-2.881-.398-4.943-.314.859.046 1.593.146 2.143.315 2.216.679 6.122 5.04 7.882 7.11a1.57 1.57 0 0 1-.06 2.1l-4.004 4.204a2.398 2.398 0 0 0-.6 2.188l2.836 12.405a3.092 3.092 0 0 1-1.612 3.444c2.321 1.181 4.995-.897 4.412-3.444l-2.837-12.405a2.398 2.398 0 0 1 .601-2.188l4.004-4.205Z" fill="#aac0d1" fill-rule="evenodd" data-name="Path 16782"/><path d="M970.096 1106.632h-1.428a1.74 1.74 0 0 0 0 3.482h2.225l-.797-3.482Zm-19.566-13.16v6.295c0 .38.307.687.686.687h2.834v-7.67h-2.834a.687.687 0 0 0-.686.687Z" fill="#78baf6" fill-rule="evenodd" data-name="Path 16783"/><path d="M972.766 1118.306a3.09 3.09 0 0 0 6.026-1.378l-1.372-5.999c-.886 2.556-2.48 5.097-4.804 6.72l.15.657Z" fill="#606572" fill-rule="evenodd" data-name="Path 16784"/><path d="M977.42 1110.93a15.442 15.442 0 0 1-1.93 3.802l.502 2.196a3.092 3.092 0 0 1-1.612 3.444c2.338 1.193 4.993-.904 4.412-3.444l-1.372-5.999Z" fill="#3b4254" fill-rule="evenodd" data-name="Path 16785"/><path d="m958.814 1128.981-10.564-8.353a5.078 5.078 0 0 1-1.943-3.946c-.073-6.9-1.103-19.532-2.701-28.728a.84.84 0 1 0-1.655.288c1.584 9.112 2.604 21.624 2.676 28.457a6.75 6.75 0 0 0 2.581 5.248l10.566 8.353a.75.75 0 0 1-.714 1.29c-2.326-.829-6.66-2.344-9.56-3.179-1.84-.531-3.378-.675-4.865-.813-1.016-.095-1.976-.185-2.996-.394-.771-.158-1.144-.839-1.32-1.383-.418-1.283-.208-3.385 1.239-4.97a.84.84 0 0 0 .209-.437c.26-1.664-1.288-10.586-3.512-14.57-3.72-6.666-4.535-10.9-2.906-15.1a.84.84 0 0 0-1.279-.983c-.843.615-3.614 2.677-5.732 4.255a.84.84 0 1 0 1.005 1.347c1.246-.93 2.494-1.858 3.742-2.785-.845 4.567.87 9.01 3.703 14.085 2.07 3.707 3.351 11.597 3.333 13.28-1.508 1.802-2.071 4.336-1.4 6.398.438 1.348 1.379 2.263 2.581 2.51 1.11.227 2.16.325 3.177.42 1.41.13 2.866.267 4.556.754 2.856.823 7.153 2.325 9.459 3.147.262.094.539.142.817.142a2.436 2.436 0 0 0 2.333-1.765 2.417 2.417 0 0 0-.83-2.568Zm-31.724-49.55c4.9-1.525 9.75-2.685 12.026-.851.238.192 1.1 1.217 2.2 6.36a.84.84 0 1 0 1.643-.351c-1.174-5.49-2.154-6.806-2.789-7.318-2.73-2.198-7.403-1.367-13.58.557a.84.84 0 0 0 .5 1.604Zm43.994 19.86a.84.84 0 0 0 .79-1.127l-1.616-4.437a.84.84 0 1 0-1.578.575l1.615 4.437a.84.84 0 0 0 .79.553Zm-5.483-.552a.84.84 0 1 0 1.579-.575l-1.615-4.437a.84.84 0 1 0-1.58.575l1.616 4.437Z" fill-rule="evenodd" data-name="Path 16786"/><path d="M982.118 1124.317h-.314a4.54 4.54 0 0 1-4.315-3.16 3.929 3.929 0 0 0 2.122-4.416l-2.837-12.405c-.117-.51.03-1.044.39-1.422l4.004-4.204a2.405 2.405 0 0 0 .092-3.223c-4.593-5.402-7.035-6.99-8.276-7.37-1.459-.446-4.044-.505-7.903-.179a.84.84 0 0 0 .141 1.675c4.473-.379 6.422-.149 7.27.111 1.408.432 4.207 2.993 7.487 6.851a.728.728 0 0 1-.028.976l-4.003 4.204a3.23 3.23 0 0 0-.812 2.956l1.41 6.163c-.774 2.127-1.96 3.957-3.41 5.281l-1.425-6.227v-.001l-.688-3.009-.452-1.976a2.32 2.32 0 0 0-2.273-1.812h-12.631a.778.778 0 0 1-.777-.777v-10.722a.773.773 0 0 1 .65-.767c1.514-.249 3.85-.609 6.386-.911a.84.84 0 0 0-.2-1.669c-2.565.306-4.928.67-6.46.923a2.447 2.447 0 0 0-2.056 2.424v.313h-1.994c-.842 0-1.526.685-1.526 1.527v6.296c0 .842.684 1.527 1.526 1.527h1.994v1.06a2.46 2.46 0 0 0 2.457 2.456h12.631a.649.649 0 0 1 .636.507l.108.475h-.374a2.584 2.584 0 0 0-2.58 2.581 2.584 2.584 0 0 0 2.58 2.58h1.555c1.81 7.914 1.752 7.819 2.009 8.358a3.935 3.935 0 0 0 3.62 2.236 6.224 6.224 0 0 0 5.952 4.45h.314a.84.84 0 1 0 0-1.68Zm-30.748-24.703v-5.99h1.84v5.99h-1.84Zm25.8 13.987.803 3.514c.017.073.03.147.04.22.21 1.64-1.374 2.938-2.94 2.416a2.25 2.25 0 0 1-1.488-1.632l-.028-.121c1.43-1.112 2.665-2.621 3.613-4.397Zm-8.502-4.327a.902.902 0 0 1 0-1.802h.759l.011.05.4 1.752h-1.17Z" fill-rule="evenodd" data-name="Path 16787"/></g></g></svg>