<svg xmlns="http://www.w3.org/2000/svg" width="43" height="45" viewBox="323 4263.951 43 45"><g data-name="CompositeLayer"><path d="M323 4286.4a21.5 22.5 0 1 1 0 .1z" fill="#fff" fill-rule="evenodd" data-name="Ellipse 9"/><path d="M351.65 4271.542h-14.075c-4.33 0-7.852 3.522-7.852 7.852v14.075c0 4.33 3.522 7.852 7.852 7.852h14.075c4.33 0 7.852-3.523 7.852-7.852v-14.075c0-4.33-3.523-7.852-7.852-7.852Zm2.617 19.31a5.24 5.24 0 0 1-5.235 5.234h-8.84a5.24 5.24 0 0 1-5.235-5.235v-8.84a5.24 5.24 0 0 1 5.235-5.235h8.84a5.24 5.24 0 0 1 5.235 5.235v8.84Zm0 0" fill="#a1a1a1" fill-rule="evenodd" data-name="Path 3424"/><g data-name="instagram (7)"><path d="M347.23 4286.431a2.617 2.617 0 1 1-5.235 0 2.617 2.617 0 0 1 5.234 0Zm0 0" fill="#a1a1a1" fill-rule="evenodd" data-name="Path 3422"/><path d="M349.032 4278.521h-8.84a3.494 3.494 0 0 0-3.49 3.49v8.84a3.494 3.494 0 0 0 3.49 3.49h8.84a3.494 3.494 0 0 0 3.49-3.49v-8.84a3.494 3.494 0 0 0-3.49-3.49Zm-4.42 12.273a4.367 4.367 0 0 1-4.362-4.363 4.367 4.367 0 0 1 4.362-4.362 4.367 4.367 0 0 1 4.362 4.362 4.367 4.367 0 0 1-4.362 4.363Zm5.002-8.492a.872.872 0 1 1 0-1.745.872.872 0 0 1 0 1.745Zm0 0" fill="#a1a1a1" fill-rule="evenodd" data-name="Path 3423"/><path d="M351.65 4271.542h-14.075c-4.33 0-7.852 3.522-7.852 7.852v14.075c0 4.33 3.522 7.852 7.852 7.852h14.075c4.33 0 7.852-3.523 7.852-7.852v-14.075c0-4.33-3.523-7.852-7.852-7.852Zm2.617 19.31a5.24 5.24 0 0 1-5.235 5.234h-8.84a5.24 5.24 0 0 1-5.235-5.235v-8.84a5.24 5.24 0 0 1 5.235-5.235h8.84a5.24 5.24 0 0 1 5.235 5.235v8.84Zm0 0" fill="#a1a1a1" fill-rule="evenodd" data-name="Path 3424"/></g></g></svg>