<svg xmlns="http://www.w3.org/2000/svg" width="101" height="101" viewBox="1127 1053 101 101"><g data-name="CompositeLayer"><path d="M1177.5 1053c27.89 0 50.5 22.61 50.5 50.5s-22.61 50.5-50.5 50.5-50.5-22.61-50.5-50.5 22.61-50.5 50.5-50.5Z" fill="#c72179" fill-rule="evenodd" data-name="Path 3428"/><path d="M1136 1103.9a42 42 0 1 1 0 .1z" fill="#fff" fill-rule="evenodd" data-name="Ellipse 18"/><path d="M1198 1123.668v-17.415l.344-1.715a68.304 68.304 0 0 0 1.323-13.203l2.583-6.46a3.139 3.139 0 0 0-1.168-3.76l-.059-.04a11.427 11.427 0 0 0-12.71 0l-.06.04a3.139 3.139 0 0 0-1.167 3.76l2.584 6.46a68.303 68.303 0 0 0 1.322 13.203l.343 1.715v17.415a3.333 3.333 0 0 0 6.666 0Zm-6.934-33.33-2.433-6.082a1.465 1.465 0 0 1 .545-1.755l.059-.04a9.765 9.765 0 0 1 10.862 0l.059.04c.571.384.798 1.115.545 1.755l-2.433 6.083h-1.753l.634-3.17a.833.833 0 1 0-1.634-.327l-.699 3.497h-.3l-.7-3.497a.833.833 0 1 0-1.634.327l.635 3.17h-1.753Zm5.268 33.33a1.666 1.666 0 0 1-3.333 0v-16.665h3.333v16.665Zm.15-18.331h-3.633l-.225-1.126a66.649 66.649 0 0 1-1.286-12.206h6.655a65.87 65.87 0 0 1-.253 5h-2.24a.833.833 0 0 0 0 1.666h2.073c-.211 1.86-.5 3.706-.865 5.54l-.225 1.126Zm-10.74-3.122-1.633-.544a1.875 1.875 0 0 0-2.468 1.778v8.554a.833.833 0 0 0-.833.833v13.332c0 .46.373.833.833.833h6.666c.46 0 .833-.373.833-.833v-13.332a.833.833 0 0 0-.833-.833v-6.23a3.745 3.745 0 0 0-2.564-3.558Zm-2.435 1.234a.208.208 0 0 1 .275-.198l1.634.545a2.08 2.08 0 0 1 1.424 1.976v6.23h-3.333v-8.553Zm4.167 21.886h-5v-8.333h5v8.333Zm0-10h-5v-1.666h5v1.667Zm-34.996 4.167v.416a7.09 7.09 0 0 0 7.082 7.083h12.499a7.09 7.09 0 0 0 7.082-7.083v-.416a.833.833 0 0 0-.833-.833h-1.958a11.665 11.665 0 1 0-21.08 0h-1.959a.833.833 0 0 0-.833.833Zm13.331-15.832a10 10 0 0 1 8.66 14.999h-1.99a8.334 8.334 0 1 0-13.335 0h-1.994a10 10 0 0 1 8.66-14.999Zm1.171 3.438a6.615 6.615 0 0 1 1.971.684l-8.108 10.32a6.667 6.667 0 0 1-1.004-1.482l7.141-9.522Zm-7.758 7.568a6.655 6.655 0 0 1 5.71-7.613l-5.71 7.613Zm11.09-5.918a6.695 6.695 0 0 1 1.6 2.234s-5.987 7.63-6.011 7.677h-3.377l7.787-9.91Zm-7.002 11.577h5a.833.833 0 0 1 0 1.667h-5a.833.833 0 0 1 0-1.667Zm4.69-1.666 4.443-5.655a6.635 6.635 0 0 1-2.226 5.655h-2.217Zm-7.047 1.666a2.499 2.499 0 0 0 2.357 3.333h5a2.499 2.499 0 0 0 2.356-3.332h6.793a5.423 5.423 0 0 1-5.4 4.999h-12.499a5.423 5.423 0 0 1-5.4-5h6.793Zm15.226-30.97 1.336.89a4.444 4.444 0 0 1 1.507 1.708l.207.415a.833.833 0 0 0 1.49 0l.208-.415c.346-.69.865-1.279 1.507-1.708l1.336-.89a.833.833 0 0 0-.2-1.484 4.458 4.458 0 0 1-2.805-2.806.833.833 0 0 0-1.581 0 4.458 4.458 0 0 1-2.806 2.806.833.833 0 0 0-.199 1.484Zm3.795-2.196a6.163 6.163 0 0 0 1.666 1.613l-.13.087a6.11 6.11 0 0 0-1.536 1.468 6.109 6.109 0 0 0-1.535-1.468l-.13-.087a6.163 6.163 0 0 0 1.665-1.613Zm-5.569 5.712a4.458 4.458 0 0 1-2.806-2.806.833.833 0 0 0-1.58 0 4.458 4.458 0 0 1-2.807 2.806.833.833 0 0 0-.198 1.484l1.335.89a4.444 4.444 0 0 1 1.507 1.708l.208.415a.833.833 0 0 0 1.49 0l.207-.415c.346-.69.865-1.28 1.508-1.708l1.335-.89a.833.833 0 0 0-.199-1.484Zm-2.06.988a6.11 6.11 0 0 0-1.536 1.468 6.109 6.109 0 0 0-1.536-1.469l-.13-.086a6.163 6.163 0 0 0 1.666-1.614 6.163 6.163 0 0 0 1.665 1.614l-.13.087Zm4.257-11.113 1.335-.89a.833.833 0 0 0-.199-1.483 4.458 4.458 0 0 1-2.806-2.806.833.833 0 0 0-1.58 0 4.458 4.458 0 0 1-2.807 2.806.833.833 0 0 0-.198 1.483l1.335.89a4.444 4.444 0 0 1 1.507 1.708l.208.415a.833.833 0 0 0 1.49 0l.207-.415c.346-.69.865-1.279 1.508-1.708Zm-2.46.082a6.109 6.109 0 0 0-1.536-1.468l-.13-.087a6.163 6.163 0 0 0 1.666-1.613 6.163 6.163 0 0 0 1.665 1.613l-.13.087a6.11 6.11 0 0 0-1.535 1.468Z" fill-rule="evenodd" data-name="Path 16778"/><g data-name="svgexport-18"><g data-name="filled outline"><path d="m1190.502 1091.172-2.643-6.606a2.291 2.291 0 0 1 .857-2.758l.059-.039a10.624 10.624 0 0 1 11.786 0l.059.04a2.291 2.291 0 0 1 .856 2.757l-2.642 6.606h-8.332Z" fill="#ffb3b3" fill-rule="evenodd" data-name="Path 16760"/><path d="M1193.834 1092.005a.833.833 0 0 1-.817-.67l-.833-4.166a.833.833 0 1 1 1.634-.327l.834 4.166a.833.833 0 0 1-.818.997Z" fill="#faa6b2" fill-rule="evenodd" data-name="Path 16761"/><path d="M1195.502 1092.005a.833.833 0 0 1-.818-.997l.833-4.166a.833.833 0 0 1 1.634.327l-.833 4.166a.833.833 0 0 1-.816.67Z" fill="#faa6b2" fill-rule="evenodd" data-name="Path 16762"/><path d="M1155.106 1113.505a10.769 10.769 0 1 1 0 .1z" fill="#0bafea" fill-rule="evenodd" data-name="Ellipse 23"/><path d="M1175.777 1117.92c-.234.55-.514 1.079-.835 1.582h-18.26a10.806 10.806 0 0 1-.836-1.582h19.931Z" fill="#0276b4" fill-rule="evenodd" data-name="Path 16763"/><path d="M1194.668 1126.168a2.5 2.5 0 0 1-2.5-2.5v-17.498h5v17.498a2.5 2.5 0 0 1-2.5 2.5Z" fill="#683b0d" fill-rule="evenodd" data-name="Path 16764"/><path d="M1192.168 1106.17h5v1.667h-5v-1.667Z" fill="#683b0d" fill-rule="evenodd" data-name="Path 16765"/><path d="M1197.168 1106.17h-5l-.36-1.796a67.319 67.319 0 0 1-1.306-13.202h8.332c0 4.432-.438 8.855-1.307 13.202l-.36 1.796Z" fill="#eaeae8" fill-rule="evenodd" data-name="Path 16766"/><path d="M1198 1098.671h-2.499a.833.833 0 0 1 0-1.666h2.5a.833.833 0 1 1 0 1.666Z" fill="#fbfdff" fill-rule="evenodd" data-name="Path 16767"/><path d="M1181.643 1116.169h6.666v9.999h-6.666v-9.999Z" fill="#ea9d2d" fill-rule="evenodd" data-name="Path 16768"/><path d="M1181.643 1112.836h6.666v3.333h-6.666v-3.333Z" fill="#fbb540" fill-rule="evenodd" data-name="Path 16769"/><path d="M1187.476 1112.836h-5v-9.387a1.042 1.042 0 0 1 1.371-.988l1.634.545a2.916 2.916 0 0 1 1.995 2.766v7.064Z" fill="#d32b39" fill-rule="evenodd" data-name="Path 16770"/><path d="M1175.777 1117.92c-.234.55-.514 1.079-.835 1.582h-18.26a10.806 10.806 0 0 1-.836-1.582h19.931Z" fill="#0276b4" fill-rule="evenodd" data-name="Path 16771"/><g data-name="Group 40434"><path d="M1158.258 1113.505a7.617 7.617 0 1 1 0 .1z" fill="#eaeae8" fill-rule="evenodd" data-name="Ellipse 24"/><path d="m1170.183 1107.576-9.257 11.782a7.505 7.505 0 0 1-2.05-2.83l7.736-10.315a7.452 7.452 0 0 1 3.57 1.363Zm2.966 4.54-6.15 7.829a.833.833 0 1 1-1.31-1.03l6.802-8.657c.301.587.523 1.212.658 1.858Z" fill="#eaeae8" fill-rule="evenodd" data-name="Path 16772"/></g><path d="M1153.313 1119.502h24.997v.416a6.25 6.25 0 0 1-6.25 6.25h-12.498a6.25 6.25 0 0 1-6.249-6.25v-.416Z" fill="#0bafea" fill-rule="evenodd" data-name="Path 16773"/><path d="m1170.183 1107.576-9.257 11.782a7.505 7.505 0 0 1-2.05-2.83l7.736-10.315a7.452 7.452 0 0 1 3.57 1.363Zm2.966 4.54-6.15 7.829a.832.832 0 0 1-1.17.14c-.362-.284-1.046-.008-.761-.37l7.423-9.457c.301.587.523 1.212.658 1.858Z" fill="#fbfdff" fill-rule="evenodd" data-name="Path 16774"/><path d="M1179.976 1085.34a5.27 5.27 0 0 1-3.332 3.332l1.335.89a5.27 5.27 0 0 1 1.79 2.028l.207.415.208-.415a5.27 5.27 0 0 1 1.79-2.028l1.335-.89a5.27 5.27 0 0 1-3.333-3.333Zm-9.165 4.999a5.27 5.27 0 0 1-3.333 3.333l1.335.89a5.27 5.27 0 0 1 1.79 2.028l.208.415.207-.415a5.27 5.27 0 0 1 1.79-2.028l1.336-.89a5.27 5.27 0 0 1-3.333-3.333Zm3.333-12.499a5.27 5.27 0 0 1-3.333 3.333l1.335.89a5.27 5.27 0 0 1 1.79 2.028l.208.415.207-.415a5.27 5.27 0 0 1 1.79-2.028l1.336-.89a5.27 5.27 0 0 1-3.333-3.333Z" fill="#fbb540" fill-rule="evenodd" data-name="Path 16775"/><path d="M1162.986 1119.646h5.253a1.576 1.576 0 0 1 1.576 1.576 1.576 1.576 0 0 1-1.576 1.576h-5.253a1.576 1.576 0 0 1-1.576-1.576 1.576 1.576 0 0 1 1.576-1.576z" fill="#0276b4" fill-rule="evenodd" data-name="Rectangle 26891"/><path d="M1182.476 1111.17h5v1.666h-5v-1.666Z" fill="#961b20" fill-rule="evenodd" data-name="Path 16776"/><path d="M1192.168 1106.17h5v1.667h-5v-1.667Z" fill="#533222" fill-rule="evenodd" data-name="Path 16777"/><path d="M1198 1123.668v-17.415l.344-1.715a68.304 68.304 0 0 0 1.323-13.203l2.583-6.46a3.139 3.139 0 0 0-1.168-3.76l-.059-.04a11.427 11.427 0 0 0-12.71 0l-.06.04a3.139 3.139 0 0 0-1.167 3.76l2.584 6.46a68.303 68.303 0 0 0 1.322 13.203l.343 1.715v17.415a3.333 3.333 0 0 0 6.666 0Zm-6.934-33.33-2.433-6.082a1.465 1.465 0 0 1 .545-1.755l.059-.04a9.765 9.765 0 0 1 10.862 0l.059.04c.571.384.798 1.115.545 1.755l-2.433 6.083h-1.753l.634-3.17a.833.833 0 1 0-1.634-.327l-.699 3.497h-.3l-.7-3.497a.833.833 0 1 0-1.634.327l.635 3.17h-1.753Zm5.268 33.33a1.666 1.666 0 0 1-3.333 0v-16.665h3.333v16.665Zm.15-18.331h-3.633l-.225-1.126a66.649 66.649 0 0 1-1.286-12.206h6.655a65.87 65.87 0 0 1-.253 5h-2.24a.833.833 0 0 0 0 1.666h2.073c-.211 1.86-.5 3.706-.865 5.54l-.225 1.126Zm-10.74-3.122-1.633-.544a1.875 1.875 0 0 0-2.468 1.778v8.554a.833.833 0 0 0-.833.833v13.332c0 .46.373.833.833.833h6.666c.46 0 .833-.373.833-.833v-13.332a.833.833 0 0 0-.833-.833v-6.23a3.745 3.745 0 0 0-2.564-3.558Zm-2.435 1.234a.208.208 0 0 1 .275-.198l1.634.545a2.08 2.08 0 0 1 1.424 1.976v6.23h-3.333v-8.553Zm4.167 21.886h-5v-8.333h5v8.333Zm0-10h-5v-1.666h5v1.667Zm-34.996 4.167v.416a7.09 7.09 0 0 0 7.082 7.083h12.499a7.09 7.09 0 0 0 7.082-7.083v-.416a.833.833 0 0 0-.833-.833h-1.958a11.665 11.665 0 1 0-21.08 0h-1.959a.833.833 0 0 0-.833.833Zm13.331-15.832a10 10 0 0 1 8.66 14.999h-1.99a8.334 8.334 0 1 0-13.335 0h-1.994a10 10 0 0 1 8.66-14.999Zm1.171 3.438a6.615 6.615 0 0 1 1.971.684l-8.108 10.32a6.667 6.667 0 0 1-1.004-1.482l7.141-9.522Zm-7.758 7.568a6.655 6.655 0 0 1 5.71-7.613l-5.71 7.613Zm11.09-5.918a6.695 6.695 0 0 1 1.6 2.234s-5.987 7.63-6.011 7.677h-3.377l7.787-9.91Zm-7.002 11.577h5a.833.833 0 0 1 0 1.667h-5a.833.833 0 0 1 0-1.667Zm4.69-1.666 4.443-5.655a6.635 6.635 0 0 1-2.226 5.655h-2.217Zm-7.047 1.666a2.499 2.499 0 0 0 2.357 3.333h5a2.499 2.499 0 0 0 2.356-3.332h6.793a5.423 5.423 0 0 1-5.4 4.999h-12.499a5.423 5.423 0 0 1-5.4-5h6.793Zm15.226-30.97 1.336.89a4.444 4.444 0 0 1 1.507 1.708l.207.415a.833.833 0 0 0 1.49 0l.208-.415c.346-.69.865-1.279 1.507-1.708l1.336-.89a.833.833 0 0 0-.2-1.484 4.458 4.458 0 0 1-2.805-2.806.833.833 0 0 0-1.581 0 4.458 4.458 0 0 1-2.806 2.806.833.833 0 0 0-.199 1.484Zm3.795-2.196a6.163 6.163 0 0 0 1.666 1.613l-.13.087a6.11 6.11 0 0 0-1.536 1.468 6.109 6.109 0 0 0-1.535-1.468l-.13-.087a6.163 6.163 0 0 0 1.665-1.613Zm-5.569 5.712a4.458 4.458 0 0 1-2.806-2.806.833.833 0 0 0-1.58 0 4.458 4.458 0 0 1-2.807 2.806.833.833 0 0 0-.198 1.484l1.335.89a4.444 4.444 0 0 1 1.507 1.708l.208.415a.833.833 0 0 0 1.49 0l.207-.415c.346-.69.865-1.28 1.508-1.708l1.335-.89a.833.833 0 0 0-.199-1.484Zm-2.06.988a6.11 6.11 0 0 0-1.536 1.468 6.109 6.109 0 0 0-1.536-1.469l-.13-.086a6.163 6.163 0 0 0 1.666-1.614 6.163 6.163 0 0 0 1.665 1.614l-.13.087Zm4.257-11.113 1.335-.89a.833.833 0 0 0-.199-1.483 4.458 4.458 0 0 1-2.806-2.806.833.833 0 0 0-1.58 0 4.458 4.458 0 0 1-2.807 2.806.833.833 0 0 0-.198 1.483l1.335.89a4.444 4.444 0 0 1 1.507 1.708l.208.415a.833.833 0 0 0 1.49 0l.207-.415c.346-.69.865-1.279 1.508-1.708Zm-2.46.082a6.109 6.109 0 0 0-1.536-1.468l-.13-.087a6.163 6.163 0 0 0 1.666-1.613 6.163 6.163 0 0 0 1.665 1.613l-.13.087a6.11 6.11 0 0 0-1.535 1.468Z" fill-rule="evenodd" data-name="Path 16778"/></g></g></g></svg>