<svg xmlns="http://www.w3.org/2000/svg" width="27" height="27" viewBox="813 4158.95 27 27"><g data-name="CompositeLayer"><path d="M813 4172.4a13.5 13.5 0 1 1 0 .1z" fill="#fff" fill-rule="evenodd" data-name="Ellipse 22"/><path d="M817.101 4177.976v-10.44c0-.012.019-.127.055-.345l6.145 5.257-6.127 5.891a1.536 1.536 0 0 1-.073-.363Zm.816-11.51a.781.781 0 0 1 .308-.054h16.55c.109 0 .217.018.326.054l-6.163 5.275-.816.652-1.613 1.324-1.613-1.324-.816-.652-6.163-5.275Zm.018 12.58 6.181-5.927 2.393 1.94 2.393-1.94 6.18 5.927a.87.87 0 0 1-.307.054h-16.55a.82.82 0 0 1-.29-.054Zm11.782-6.598 6.127-5.257c.036.109.055.224.055.345v10.44c0 .11-.019.23-.055.363l-6.127-5.891Z" fill="#a1a1a1" fill-rule="evenodd" data-name="Icon zocial-email"/></g></svg>