<svg xmlns="http://www.w3.org/2000/svg" width="27" height="27" viewBox="813 4117.95 27 27"><g data-name="CompositeLayer"><path d="M813 4131.4a13.5 13.5 0 1 1 0 .1z" fill="#fff" fill-rule="evenodd" data-name="Ellipse 22"/><path d="M821.518 4131.107a13.039 13.039 0 0 0 5.672 5.673l1.894-1.894a.856.856 0 0 1 .878-.207c.964.319 2.005.491 3.073.491.473 0 .86.387.86.86v3.005c0 .473-.387.86-.86.86-8.082 0-14.632-6.55-14.632-14.632 0-.473.387-.86.86-.86h3.013c.473 0 .86.387.86.86 0 1.076.173 2.109.491 3.073a.864.864 0 0 1-.215.878l-1.894 1.893Z" fill="#a1a1a1" fill-rule="evenodd" data-name="Icon material-call"/></g></svg>