<svg xmlns="http://www.w3.org/2000/svg" width="101" height="101" viewBox="449 1053 101 101"><g data-name="CompositeLayer"><path d="M499.5 1053c27.89 0 50.5 22.61 50.5 50.5s-22.61 50.5-50.5 50.5-50.5-22.61-50.5-50.5 22.61-50.5 50.5-50.5Z" fill="#c72179" fill-rule="evenodd" data-name="Path 3428"/><path d="M458 1103.9a42 42 0 1 1 0 .1z" fill="#fff" fill-rule="evenodd" data-name="Ellipse 18"/><g data-name="Group 40435" transform="translate(470 1074.092)" clip-path="url(&quot;#a&quot;)"><path d="M11.917 26.301H8.545v2.705a6.962 6.962 0 0 0 3.41 5.988l-.038-8.693Z" fill="#ffb680" fill-rule="evenodd" data-name="Path 16802"/><path d="m45.656 26.301-.037 8.693a6.963 6.963 0 0 0 3.409-5.988v-2.705h-3.372Z" fill="#ffb680" fill-rule="evenodd" data-name="Path 16803"/><path d="M21.184 50.332h15.21v7.216h-15.21v-7.216Z" fill="#ffb680" fill-rule="evenodd" data-name="Path 16804"/><path d="M43.063 43.248a23.27 23.27 0 0 1-4.109 5.759c-2.478 2.54-5.793 4.793-10.177 5.889-4.383-1.096-7.698-3.348-10.176-5.89-4.328-4.437-6.684-10.432-6.684-16.63v-6.974S11.43 7.756 28.777 7.756c17.347 0 16.86 17.646 16.86 17.646v6.974c0 1.918-.225 3.816-.665 5.655" fill="#ffe1ba" fill-rule="evenodd" data-name="Path 16805"/><path d="M43.063 40.584c-2.88 5.698-8.06 10.091-14.286 11.648-5.644-1.411-10.344-5.943-12.614-11.292-1.925-4.536-1.753-8.876-1.753-13.683 0-4.574.594-9.103 3.233-13.003 2.82-4.167 7.444-6.213 12.38-6.466-6.194-.318-12.237 1.854-15.455 7.395-1.716 2.954-2.6 6.49-2.65 9.902 0 4.042-.318 8.273.508 12.245 1.734 8.34 7.995 15.477 16.351 17.566 6.224-1.556 12.15-6.252 14.527-12.306.649-1.655 1.39-3.378 1.793-5.112.595-2.553.54-5.166.54-7.766 0 3.981-1.239 7.222-2.574 10.872" fill="#ffb680" fill-rule="evenodd" data-name="Path 16806"/><path d="M32.57.988C27.639.795 22.298.578 17.815 2.922c-6.158 3.221-9.227 8.543-9.227 16.225v7.154h3.372c-.206-6.114 2.244-12.98 7.658-16.256 4.804-2.907 11.667-3.092 16.763-.852 4.066 1.788 6.81 5.37 8.173 9.524.791 2.413 1.228 5.038 1.145 7.584h3.386c0-4.305.525-9.053-.76-13.219C46.2 6.195 39.77 1.262 32.57.988" fill="#b071d2" fill-rule="evenodd" data-name="Path 16807"/><path d="M48.198 23.904c.118-3.632-1.293-7.613-3.212-10.63-3.862-6.071-10.796-8.408-17.758-7.992-1.06-1.763 1.056-3.13 2.474-3.643L27.878.31c-1.642 1.28-2.8 2.921-2.27 5.124-7.964 1.015-12.366 5.784-14.496 10.598.318-5.66 2.45-9.935 6.402-12.945-5.955 3.235-8.926 8.506-8.926 16.061v7.154h3.372c-.018-.526-.014-1.06.008-1.595h-.004c.144-3.719 1.23-7.471 3.343-10.533 2.705-3.919 7.015-6.013 11.702-6.424.027.024 8.218-.705 12.881 3.684 4.121 3.611 5.984 9.504 5.809 14.868h3.386v-2.397h-.887Z" fill="#923ec3" fill-rule="evenodd" data-name="Path 16808"/><path d="M29.776 7.756c-4.813 0-9.232.974-12.837 4.4-3.772 3.585-4.979 8.205-4.979 13.246.854-.854 1.69-1.73 2.564-2.564 1.896-1.809 3.929-2.328 6.464-2.51 3.982-.286 7.678-3.539 7.832-7.664 7.24.025 14.851 5.838 16.954 12.738 0-4.32-.788-8.307-3.588-11.745a16.106 16.106 0 0 0-12.41-5.9" fill="#8ca3b7" fill-rule="evenodd" data-name="Path 16809"/><path d="M45.642 22.559c-2.273-6.72-9.725-12.305-16.822-12.33-.111 2.982-2.124 5.566-4.757 6.833-2.861 1.377-6.12.656-8.776 2.687C17.12 12.35 23.51 8.166 30.87 7.796c-5.067-.354-10.411.905-14.11 4.537-3.529 3.465-4.799 8.242-4.799 13.07.94-.94 2.84-2.816 2.84-2.816 3.492-3.254 6.018-1.623 9.07-2.997 2.727-1.228 4.836-3.876 4.95-6.926 7.24.025 14.851 5.838 16.954 12.738 0-.965-.04-1.914-.132-2.843" fill="#57758d" fill-rule="evenodd" data-name="Path 16810"/><path d="M19.473 17.029h-1.686v-1.686h1.686v1.686Zm3.372 0H21.16v-1.686h1.686v1.686Zm6.632-11.792H27.79V3.551h1.686v1.686Z" fill="#fff" fill-rule="evenodd" data-name="Path 16811"/><path d="m44.248 43.535 3.633 1.987-3.633 1.987-1.987 3.633-1.987-3.633-3.633-1.987 3.633-1.987 1.987-3.633 1.987 3.633Z" fill="#fff5bd" fill-rule="evenodd" data-name="Path 16812"/><path d="M42.098 45.685 39.22 44.11l-2.579 1.41 3.633 1.988 1.987 3.633 1.41-2.58-1.573-2.877Z" fill="#fee95d" fill-rule="evenodd" data-name="Path 16813"/><path d="m13.903 5.43 3.633 1.987-3.633 1.987-1.987 3.633L9.93 9.404 6.296 7.417 9.93 5.43l1.987-3.633 1.987 3.633Z" fill="#fff5bd" fill-rule="evenodd" data-name="Path 16814"/><path d="M11.753 7.58 8.875 6.006l-2.579 1.41L9.93 9.405l1.987 3.633 1.41-2.58-1.573-2.877Z" fill="#fee95d" fill-rule="evenodd" data-name="Path 16815"/><path d="M57.519 35.518h-1.686v-1.686h1.686v1.686Zm0 10.113h-1.686v-1.686h1.686v1.686Z" fill="#8ad8f6" fill-rule="evenodd" data-name="Path 16816"/><path d="m47.565 13.793 1.627-.447a17.951 17.951 0 0 0-.554-1.686l-1.575.605c.192.5.36 1.01.502 1.528" fill-rule="evenodd" data-name="Path 16817"/><path d="m25.853 30.628-1.57-.618c-1.063 2.789-5.09 2.843-6.244.098l-1.55.667c1.731 4.118 7.77 4.034 9.364-.147" fill-rule="evenodd" data-name="Path 16818"/><path d="M36.232 32.15a3.373 3.373 0 0 1-3.101-2.042l-1.55.667c1.7 4.052 7.603 4.05 9.302 0l-1.55-.666a3.374 3.374 0 0 1-3.1 2.041" fill-rule="evenodd" data-name="Path 16819"/><path d="m41.65 26.989 1.156-1.23a7.426 7.426 0 0 0-5.108-2.024h-6.373v1.687h6.373c1.475 0 2.878.556 3.951 1.567" fill-rule="evenodd" data-name="Path 16820"/><path d="M26.213 25.422v-1.687h-6.448c-1.906 0-3.72.719-5.107 2.025l1.156 1.229a5.745 5.745 0 0 1 3.95-1.567h6.449Z" fill-rule="evenodd" data-name="Path 16821"/><path d="m24.156 41.56-.969 1.382c3.014 2.453 8.078 2.453 11.092 0l-.969-1.381c-2.387 1.858-6.946 1.865-9.154 0" fill-rule="evenodd" data-name="Path 16822"/><path d="m43.596 46.88-1.367 2.5-1.367-2.5-2.499-1.367 2.5-1.366 1.366-2.5 1.367 2.5 2.499 1.366-2.5 1.367Zm-14.872 7.143c-13.765-3.727-16.828-15.855-16.042-28.28l2.389-2.39c3.837-3.778 7.017-.643 11.352-4.467l-1.112-1.27c-4.503 3.75-7.022-.419-12.487 5.599.4-3.551 1.586-6.735 3.402-9.133 5.418-7.73 21.172-7.26 25.767 1.128 1.025 1.656 1.67 3.373 2.075 5.143a20.712 20.712 0 0 0-14.5-8.497v-1.66H27.88c.072 2.33-.024 4.37-1.516 6.29l1.346 1.017a9.11 9.11 0 0 0 1.722-3.965 19.03 19.03 0 0 1 15.227 11.23c-.046 4.709.415 11.042-1.292 15.444l-1.138-2.08-2.61 4.771-4.772 2.61 4.072 2.227c-2.769 3.065-6.348 5.277-10.195 6.283M9.32 28.986v-1.863h1.671v6.188c-1.129-1.135-1.67-2.692-1.67-4.325m0-10.86c0-2.073.377-4.07 1.12-5.961l1.421 2.599 2.61-4.772 4.772-2.61-3.75-2.051a16.307 16.307 0 0 1 8.966-3.508c-1.116 1.592-.992 3.95.29 5.412C15.758 8.719 11.053 16.705 11 25.436H9.32v-7.31ZM7.996 7.381l2.5-1.367 1.366-2.5 1.367 2.5 2.5 1.367-2.5 1.367-1.367 2.499-1.366-2.5-2.5-1.366Zm40.148 19.741c.068 2.42.085 4.358-1.717 6.182v-6.182h1.717ZM44.432 42.16c.832-1.997 1.395-4.139 1.708-6.538a7.84 7.84 0 0 0 3.685-6.636v-10.78c-.03-1.28-.1-2.406-.243-3.09l-1.664.28c.369 1.587.175 8.19.22 10.04H46.38C46.355 13.998 38.817 5.922 26.932 6.95c-2.023-1.137-2.044-4.02-.031-5.17h4.897c6.215 0 11.813 3.45 14.61 9.006l1.507-.759C44.953 4.023 38.508.029 31.798.091c-6.548-.096-12.285-.4-17.622 4.137L11.863 0l-2.61 4.772-4.772 2.61 4.938 2.8c-1.13 1.89-1.622 4.724-1.785 7.737v11.067a7.846 7.846 0 0 0 3.692 6.636c.59 6.036 4.017 12.304 8.956 16.047v5.88h1.687v-4.683a21.838 21.838 0 0 0 6.755 2.898 22.035 22.035 0 0 0 6.778-2.921v4.705h1.687v-5.904a23.431 23.431 0 0 0 2.893-2.675l2.147 3.926 2.61-4.772 4.772-2.61-4.772-2.61-.407-.743Z" fill-rule="evenodd" data-name="Path 16823"/><path d="M52.353 37.19h-1.687v1.687h-1.687v1.687h1.687v1.688h1.687v-1.688h1.687v-1.687h-1.687V37.19Z" fill-rule="evenodd" data-name="Path 16824"/><path d="M3.426 11.963H1.738v1.687H.051v1.687h1.687v1.687h1.688v-1.687h1.687V13.65H3.426v-1.687Z" fill-rule="evenodd" data-name="Path 16825"/></g></g><defs><clipPath id="a"><path d="M0-682.665h57.548v57.548H0v-57.548Z" data-name="Path 16826" transform="translate(0 682.665)"/></clipPath></defs></svg>