<svg xmlns="http://www.w3.org/2000/svg" width="44" height="45" viewBox="268 4263.951 44 45"><g data-name="CompositeLayer"><path d="M268 4286.4a22 22.5 0 1 1 0 .1z" fill="#fff" fill-rule="evenodd" data-name="Ellipse 9"/><path d="M305.573 4294.06c-4.41-.726-6.396-5.242-6.476-5.434-.006-.012-.01-.025-.019-.037-.225-.457-.278-.835-.154-1.121.24-.565 1.164-.858 1.774-1.051.177-.056.344-.11.482-.163.602-.237 1.03-.495 1.315-.785.338-.349.404-.683.4-.899-.01-.528-.414-.997-1.06-1.226a1.915 1.915 0 0 0-.716-.136c-.171 0-.427.022-.668.136-.515.24-.977.373-1.375.391a1.262 1.262 0 0 1-.455-.099c.012-.206.024-.418.039-.636l.006-.095c.142-2.232.317-5.009-.42-6.657-.505-1.13-1.184-2.1-2.018-2.888a8.438 8.438 0 0 0-2.414-1.591 9.536 9.536 0 0 0-3.765-.796h-.082l-.568.007c-.731 0-2.197.103-3.77.795-.9.396-1.708.93-2.404 1.59-.831.786-1.507 1.755-2.01 2.88-.738 1.647-.563 4.423-.422 6.654v.004l.045.731a1.32 1.32 0 0 1-.54.101c-.416 0-.911-.132-1.47-.393a1.32 1.32 0 0 0-.558-.116c-.332 0-.684.097-.987.276-.384.225-.631.54-.7.893-.042.23-.04.69.47 1.156.283.256.695.493 1.23.703.14.056.306.107.481.163.61.193 1.536.486 1.777 1.05.122.287.068.665-.157 1.122-.006.012-.012.025-.016.037-.058.132-.583 1.317-1.661 2.568a9.321 9.321 0 0 1-2.004 1.769 7.372 7.372 0 0 1-2.813 1.094.77.77 0 0 0-.645.804.977.977 0 0 0 .08.336v.002c.16.369.524.68 1.117.954.726.336 1.81.618 3.226.839.072.136.146.476.198.709.053.247.11.503.19.773.086.293.309.643.884.643.218 0 .468-.05.758-.105.425-.083 1.006-.196 1.73-.196.401 0 .818.035 1.236.105.808.134 1.505.625 2.31 1.193 1.18.833 2.515 1.775 4.555 1.775.056 0 .112-.002.167-.006.066.004.15.006.237.006 2.04 0 3.376-.942 4.555-1.772l.002-.003c.806-.566 1.503-1.057 2.31-1.19.42-.07.835-.106 1.237-.106.693 0 1.241.089 1.73.184.319.061.566.092.758.092h.037c.42 0 .73-.23.847-.632.079-.266.134-.514.19-.767.047-.219.126-.57.196-.705 1.416-.223 2.5-.503 3.225-.839.592-.274.956-.585 1.115-.952a.98.98 0 0 0 .083-.34.767.767 0 0 0-.645-.8Z" fill="#a1a1a1" fill-rule="evenodd" data-name="Path 3425"/><g data-name="snapchat (2)"><g data-name="Group 4173"><path d="M305.573 4294.06c-4.41-.726-6.396-5.242-6.476-5.434-.006-.012-.01-.025-.019-.037-.225-.457-.278-.835-.154-1.121.24-.565 1.164-.858 1.774-1.051.177-.056.344-.11.482-.163.602-.237 1.03-.495 1.315-.785.338-.349.404-.683.4-.899-.01-.528-.414-.997-1.06-1.226a1.915 1.915 0 0 0-.716-.136c-.171 0-.427.022-.668.136-.515.24-.977.373-1.375.391a1.262 1.262 0 0 1-.455-.099c.012-.206.024-.418.039-.636l.006-.095c.142-2.232.317-5.009-.42-6.657-.505-1.13-1.184-2.1-2.018-2.888a8.438 8.438 0 0 0-2.414-1.591 9.536 9.536 0 0 0-3.765-.796h-.082l-.568.007c-.731 0-2.197.103-3.77.795-.9.396-1.708.93-2.404 1.59-.831.786-1.507 1.755-2.01 2.88-.738 1.647-.563 4.423-.422 6.654v.004l.045.731a1.32 1.32 0 0 1-.54.101c-.416 0-.911-.132-1.47-.393a1.32 1.32 0 0 0-.558-.116c-.332 0-.684.097-.987.276-.384.225-.631.54-.7.893-.042.23-.04.69.47 1.156.283.256.695.493 1.23.703.14.056.306.107.481.163.61.193 1.536.486 1.777 1.05.122.287.068.665-.157 1.122-.006.012-.012.025-.016.037-.058.132-.583 1.317-1.661 2.568a9.321 9.321 0 0 1-2.004 1.769 7.372 7.372 0 0 1-2.813 1.094.77.77 0 0 0-.645.804.977.977 0 0 0 .08.336v.002c.16.369.524.68 1.117.954.726.336 1.81.618 3.226.839.072.136.146.476.198.709.053.247.11.503.19.773.086.293.309.643.884.643.218 0 .468-.05.758-.105.425-.083 1.006-.196 1.73-.196.401 0 .818.035 1.236.105.808.134 1.505.625 2.31 1.193 1.18.833 2.515 1.775 4.555 1.775.056 0 .112-.002.167-.006.066.004.15.006.237.006 2.04 0 3.376-.942 4.555-1.772l.002-.003c.806-.566 1.503-1.057 2.31-1.19.42-.07.835-.106 1.237-.106.693 0 1.241.089 1.73.184.319.061.566.092.758.092h.037c.42 0 .73-.23.847-.632.079-.266.134-.514.19-.767.047-.219.126-.57.196-.705 1.416-.223 2.5-.503 3.225-.839.592-.274.956-.585 1.115-.952a.98.98 0 0 0 .083-.34.767.767 0 0 0-.645-.8Z" fill="#a1a1a1" fill-rule="evenodd" data-name="Path 3425"/></g></g></g></svg>