<svg xmlns="http://www.w3.org/2000/svg" width="101" height="101" viewBox="675 1053 101 101"><g data-name="CompositeLayer"><path d="M725.5 1053c27.89 0 50.5 22.61 50.5 50.5s-22.61 50.5-50.5 50.5-50.5-22.61-50.5-50.5 22.61-50.5 50.5-50.5Z" fill="#c72179" fill-rule="evenodd" data-name="Path 3428"/><path d="M684 1103.9a42 42 0 1 1 0 .1z" fill="#fff" fill-rule="evenodd" data-name="Ellipse 18"/><path d="M752.658 1083.618a.913.913 0 0 0-.913.913v18.725c0 6.404-6.775 9.652-10.814 11.019-2.147.727-3.244.34-3.457-.096-.126-.26.037-.607.397-.844 1.555-1.022 7.838-5.805 7.838-8.816 0-1.36-.13-2.664-.238-3.519a1.56 1.56 0 0 0-.785-1.161 1.561 1.561 0 0 0-1.402-.058l-4.874 2.216a.864.864 0 0 1-1.011-.217.86.86 0 0 1-.214-.65.86.86 0 0 1 .324-.603c.87-.693 1.599-1.24 2.21-1.676l.022-.015c1.448-1.03 2.226-1.417 2.607-1.562a.906.906 0 0 0 .053-.02.983.983 0 0 1 .26-.067h2.99a.913.913 0 0 0 .912-.913v-11.224a.913.913 0 1 0-1.826 0v10.31h-1.454c.25-1.07.47-2.443.407-3.814-.09-1.942-.743-3.415-1.899-4.299-.098-3.225-.942-5.843-2.51-7.787-1.119-1.386-2.572-2.399-4.323-3.018-.567-2.928-2.893-5.532-5.956-6.595-2.639-.917-8.072-1.433-14.81 5.405a.913.913 0 0 0 1.3 1.282c6.034-6.123 10.68-5.737 12.911-4.962a7.53 7.53 0 0 1 1.72.855 7.447 7.447 0 0 0-1.764.154c-1.871.394-3.68 1.433-5.531 3.177a.913.913 0 0 0 1.252 1.33c1.6-1.508 3.122-2.397 4.654-2.72 1.318-.276 2.685-.072 3.707.545.447.787.712 1.597.792 2.324.03.264.037.523.022.77-.02.339-.08.682-.182 1.03-.32 1.094-1.046 2.233-2.169 3.41-.144.15-.292.299-.442.444l-.069.068a23.905 23.905 0 0 1-2.515 2.07v.001c-2.161 1.567-4.932 3.147-8.236 4.696-3.184 1.495-5.954 4.247-7.338 7.215-1.275-.864-2.071-1.256-2.586-1.433-.487-4.514-.203-10.783 3.51-16.224a.913.913 0 1 0-1.51-1.03c-3.927 5.758-4.32 12.307-3.851 17.107h-1.033v-10.31a.913.913 0 1 0-1.826 0v11.223c0 .504.409.913.913.913h2.989c.033 0 .718.045 3.254 1.889l.03.021c.537.392 1.155.862 1.868 1.43a.86.86 0 0 1 .324.603.86.86 0 0 1-.214.65.864.864 0 0 1-1.01.217l-4.875-2.216a1.562 1.562 0 0 0-1.402.058 1.56 1.56 0 0 0-.784 1.161c-.109.855-.238 2.16-.238 3.52 0 3.01 6.282 7.793 7.837 8.815.36.237.524.584.397.844-.213.437-1.31.823-3.457.096-4.039-1.367-10.814-4.615-10.814-11.02v-18.724a.913.913 0 1 0-1.826 0v18.725c0 3.283 1.444 6.171 4.292 8.584 2.497 2.116 5.6 3.433 7.763 4.165 1.04.352 1.931.5 2.683.5 1.62 0 2.592-.69 3-1.525.533-1.093.098-2.426-1.034-3.17-1.1-.723-2.9-2.136-4.446-3.663-1.894-1.872-2.57-3.101-2.57-3.627 0-1.085.09-2.139.18-2.923l4.538 2.062a2.68 2.68 0 0 0 3.136-.671 2.67 2.67 0 0 0 .663-2.018 2.67 2.67 0 0 0-1.005-1.87c-.456-.364-.916-.721-1.382-1.072 1.141-2.68 3.716-5.295 6.6-6.649 3.212-1.506 5.946-3.049 8.136-4.589 6.187 2.282 8.408 6.945 9.572 10.961-.523.385-1.103.83-1.755 1.348a2.67 2.67 0 0 0-1.005 1.871 2.67 2.67 0 0 0 .663 2.018 2.68 2.68 0 0 0 3.136.671l4.538-2.062c.09.784.18 1.838.18 2.923 0 .526-.676 1.755-2.57 3.627-1.545 1.527-3.346 2.94-4.446 3.663-1.132.744-1.567 2.078-1.034 3.17.408.835 1.38 1.525 3 1.525.752 0 1.644-.148 2.683-.5 2.163-.732 5.266-2.049 7.764-4.165 2.847-2.412 4.291-5.3 4.291-8.584v-18.725a.913.913 0 0 0-.913-.913Zm-22.402 1.888.036-.03.116-.096a26.464 26.464 0 0 0 .474-.402l.111-.098c.062-.054.122-.108.182-.163l.093-.083c.089-.081.176-.163.262-.244l.02-.02c.08-.075.158-.15.235-.226l.082-.082.165-.165.09-.092a17.893 17.893 0 0 0 .386-.414l.075-.083c.061-.068.122-.138.182-.208l.032-.037c.07-.082.138-.164.205-.246l.053-.066.142-.18.066-.086c.103-.135.204-.273.302-.413l.059-.085.124-.186.039-.058c.053-.082.104-.164.154-.246l.028-.047c.04-.065.078-.131.115-.197l.046-.082a9.642 9.642 0 0 0 .215-.41l.043-.09a8.03 8.03 0 0 0 .078-.168l.034-.075c.035-.08.07-.162.102-.243l.004-.011c.03-.077.06-.154.087-.23.01-.026.018-.052.027-.079a7.232 7.232 0 0 0 .129-.408l.025-.091.04-.16.02-.082c.015-.067.028-.133.041-.2l.009-.04c.015-.08.028-.16.04-.24l.009-.07.017-.13c3.278 1.486 4.476 4.564 4.813 7.458l-.354-.25a.913.913 0 1 0-1.051 1.493l1.904 1.342.032.019c.012.008.024.017.037.024 1.87 1.08 1.655 4.466.868 7.207-.406.191-.927.48-1.597.916-1.2-3.84-3.558-8.56-9.446-11.147Z" fill-rule="evenodd" data-name="Path 16801"/><g data-name="svgexport-17 (20)"><path d="M708.626 1130.728h34.32l-.29-4.592a7.82 7.82 0 0 0-5.93-7.1l-4.987-1.233a.55.55 0 0 1-.42-.535v-11.163h-11.124v11.177a.552.552 0 0 1-.42.535l-4.93 1.219a7.82 7.82 0 0 0-5.93 7.1l-.29 4.592Z" fill="#f9c295" fill-rule="evenodd" data-name="Path 16788"/><path d="M742.656 1126.136a7.82 7.82 0 0 0-5.93-7.1l-4.987-1.233a.55.55 0 0 1-.42-.535v-11.163h-3.333v11.163a.55.55 0 0 0 .42.535l4.986 1.233a7.82 7.82 0 0 1 5.93 7.1l.29 4.592h3.334l-.29-4.592Z" fill="#e8a26a" fill-rule="evenodd" data-name="Path 16789"/><path d="M720.195 1115.368c1.905.98 3.88 1.484 5.59 1.484 1.694 0 3.647-.493 5.534-1.454v-9.293h-11.124v9.263Z" fill="#e8a26a" fill-rule="evenodd" data-name="Path 16790"/><path d="M725.786 1080.94c6.491 0 12.032 4.71 13.055 11.121.412 2.58.62 7.039.454 8.767-.817 8.452-8.361 13-13.51 13-5.147 0-12.692-4.548-13.508-13-.167-1.728.042-6.186.453-8.767 1.023-6.41 6.564-11.12 13.056-11.12Z" fill="#f9c295" fill-rule="evenodd" data-name="Path 16791"/><path d="M738.84 1092.061c-1.022-6.41-6.563-11.12-13.054-11.12-.282 0-.56.011-.838.029 5.412.385 9.932 4.959 10.796 11.091.364 2.58.549 7.039.401 8.767-.683 8.004-6.698 12.507-11.197 12.961.285.026.565.04.837.04 5.148 0 12.693-4.55 13.51-13.001.167-1.728-.042-6.186-.454-8.767Z" fill="#e8a26a" fill-rule="evenodd" data-name="Path 16792"/><path d="M731.022 1076.706s9.78-.606 9.866 11.034c3.164 1.827 1.66 7.855.582 10.215a.907.907 0 0 1-.64.51l-1.48.31c-1.145-4.5-3.569-11.674-13.564-13.712 3.323-7.495 5.236-8.357 5.236-8.357Z" fill="#d8e6f0" fill-rule="evenodd" data-name="Path 16793"/><path d="M736.728 1078.343c-2.695-1.823-5.706-1.637-5.706-1.637s-1.913.862-5.236 8.356c2.1.43 3.866 1.085 5.357 1.895 2.972-2.178 5.456-4.808 5.62-7.613a5.56 5.56 0 0 0-.035-1.001Z" fill="#aac0d1" fill-rule="evenodd" data-name="Path 16794"/><path d="M712.277 1100.828c0-3.858 3.513-8.284 7.753-10.275 4.241-1.99 13.81-6.896 14.137-12.492.327-5.596-8.392-13.263-19.325-2.169-8.525 8.65-6.043 20.858-5.319 23.844.208.856 2.754 2.427 2.754 1.092Z" fill="#d8e6f0" fill-rule="evenodd" data-name="Path 16795"/><path d="M745.65 1085.05v11.224h-2.99c-1.098 0-3.963 2.14-5.72 3.54a1.781 1.781 0 0 0 1.847 3.014l4.875-2.215a.642.642 0 0 1 .903.502c.102.805.23 2.08.23 3.405 0 2.198-5.1 6.523-7.426 8.052-1.818 1.196-.808 4.146 3.855 2.568 4.663-1.578 11.434-5.118 11.434-11.884v-18.725" fill="#f9c295" fill-rule="evenodd" data-name="Path 16796"/><path d="M749.914 1084.734v18.522c0 6.766-6.771 10.306-11.434 11.884-.285.097-.574.18-.866.252.772.296 1.962.306 3.61-.252 4.663-1.578 11.434-5.118 11.434-11.884v-18.725l-2.744.203Z" fill="#e8a26a" fill-rule="evenodd" data-name="Path 16797"/><path d="M705.92 1085.05v11.224h2.99c1.1 0 3.964 2.14 5.72 3.54a1.781 1.781 0 0 1-1.846 3.014l-4.875-2.215a.642.642 0 0 0-.903.502c-.102.805-.23 2.08-.23 3.405 0 2.198 5.1 6.523 7.426 8.052 1.818 1.196.808 4.146-3.855 2.568-4.662-1.578-11.434-5.118-11.434-11.884v-18.725" fill="#f9c295" fill-rule="evenodd" data-name="Path 16798"/><path d="M712.634 1102.384a1.782 1.782 0 0 1-.275.25l.425.194a1.78 1.78 0 0 0 1.847-3.015c-1.757-1.4-4.622-3.54-5.72-3.54h-2.224c1.1 0 3.964 2.14 5.72 3.54.797.635.9 1.807.227 2.571Zm1.568 10.188c-2.326-1.529-7.426-5.855-7.426-8.052 0-1.276.119-2.505.219-3.312l-1.309-.595a.642.642 0 0 0-.903.502c-.102.805-.23 2.08-.23 3.405 0 2.197 5.1 6.523 7.426 8.052 1.23.81 1.163 2.42-.453 2.89 3.643.734 4.33-1.803 2.676-2.89Zm-10.504-27.687v11.389h2.223v-11.224l-2.223-.165Z" fill="#e8a26a" fill-rule="evenodd" data-name="Path 16799"/><path d="M743.567 1126.078a8.7 8.7 0 0 0-1.832-4.824.913.913 0 1 0-1.44 1.124 6.88 6.88 0 0 1 1.45 3.816l.229 3.62h-32.376l.228-3.62a6.867 6.867 0 0 1 2.344-4.764 6.932 6.932 0 0 1 2.895-1.508l4.93-1.219a1.462 1.462 0 0 0 1.114-1.42v-3.519c1.581.635 3.202.978 4.677.978 1.455 0 3.056-.335 4.62-.955v3.48a1.462 1.462 0 0 0 1.113 1.423l4.989 1.232c.426.105.842.251 1.24.435a.913.913 0 1 0 .766-1.658 8.706 8.706 0 0 0-1.57-.55l-4.711-1.164v-4.063c2.702-1.5 4.935-3.76 6.324-6.416a.913.913 0 1 0-1.618-.846c-1.3 2.484-3.442 4.58-6.034 5.901-1.713.874-3.531 1.355-5.12 1.355-1.606 0-3.443-.49-5.171-1.382-2.51-1.291-4.604-3.322-5.899-5.718a.913.913 0 1 0-1.606.868c1.381 2.557 3.561 4.743 6.174 6.206v4.108l-4.656 1.151a8.763 8.763 0 0 0-3.66 1.908 8.681 8.681 0 0 0-2.963 6.022l-.29 4.591a.913.913 0 0 0 .912.97h34.32a.913.913 0 0 0 .911-.97l-.29-4.592Z" fill-rule="evenodd" data-name="Path 16800"/><path d="M752.658 1083.618a.913.913 0 0 0-.913.913v18.725c0 6.404-6.775 9.652-10.814 11.019-2.147.727-3.244.34-3.457-.096-.126-.26.037-.607.397-.844 1.555-1.022 7.838-5.805 7.838-8.816 0-1.36-.13-2.664-.238-3.519a1.56 1.56 0 0 0-.785-1.161 1.561 1.561 0 0 0-1.402-.058l-4.874 2.216a.864.864 0 0 1-1.011-.217.86.86 0 0 1-.214-.65.86.86 0 0 1 .324-.603c.87-.693 1.599-1.24 2.21-1.676l.022-.015c1.448-1.03 2.226-1.417 2.607-1.562a.906.906 0 0 0 .053-.02.983.983 0 0 1 .26-.067h2.99a.913.913 0 0 0 .912-.913v-11.224a.913.913 0 1 0-1.826 0v10.31h-1.454c.25-1.07.47-2.443.407-3.814-.09-1.942-.743-3.415-1.899-4.299-.098-3.225-.942-5.843-2.51-7.787-1.119-1.386-2.572-2.399-4.323-3.018-.567-2.928-2.893-5.532-5.956-6.595-2.639-.917-8.072-1.433-14.81 5.405a.913.913 0 0 0 1.3 1.282c6.034-6.123 10.68-5.737 12.911-4.962a7.53 7.53 0 0 1 1.72.855 7.447 7.447 0 0 0-1.764.154c-1.871.394-3.68 1.433-5.531 3.177a.913.913 0 0 0 1.252 1.33c1.6-1.508 3.122-2.397 4.654-2.72 1.318-.276 2.685-.072 3.707.545.447.787.712 1.597.792 2.324.03.264.037.523.022.77-.02.339-.08.682-.182 1.03-.32 1.094-1.046 2.233-2.169 3.41-.144.15-.292.299-.442.444l-.069.068a23.905 23.905 0 0 1-2.515 2.07v.001c-2.161 1.567-4.932 3.147-8.236 4.696-3.184 1.495-5.954 4.247-7.338 7.215-1.275-.864-2.071-1.256-2.586-1.433-.487-4.514-.203-10.783 3.51-16.224a.913.913 0 1 0-1.51-1.03c-3.927 5.758-4.32 12.307-3.851 17.107h-1.033v-10.31a.913.913 0 1 0-1.826 0v11.223c0 .504.409.913.913.913h2.989c.033 0 .718.045 3.254 1.889l.03.021c.537.392 1.155.862 1.868 1.43a.86.86 0 0 1 .324.603.86.86 0 0 1-.214.65.864.864 0 0 1-1.01.217l-4.875-2.216a1.562 1.562 0 0 0-1.402.058 1.56 1.56 0 0 0-.784 1.161c-.109.855-.238 2.16-.238 3.52 0 3.01 6.282 7.793 7.837 8.815.36.237.524.584.397.844-.213.437-1.31.823-3.457.096-4.039-1.367-10.814-4.615-10.814-11.02v-18.724a.913.913 0 1 0-1.826 0v18.725c0 3.283 1.444 6.171 4.292 8.584 2.497 2.116 5.6 3.433 7.763 4.165 1.04.352 1.931.5 2.683.5 1.62 0 2.592-.69 3-1.525.533-1.093.098-2.426-1.034-3.17-1.1-.723-2.9-2.136-4.446-3.663-1.894-1.872-2.57-3.101-2.57-3.627 0-1.085.09-2.139.18-2.923l4.538 2.062a2.68 2.68 0 0 0 3.136-.671 2.67 2.67 0 0 0 .663-2.018 2.67 2.67 0 0 0-1.005-1.87c-.456-.364-.916-.721-1.382-1.072 1.141-2.68 3.716-5.295 6.6-6.649 3.212-1.506 5.946-3.049 8.136-4.589 6.187 2.282 8.408 6.945 9.572 10.961-.523.385-1.103.83-1.755 1.348a2.67 2.67 0 0 0-1.005 1.871 2.67 2.67 0 0 0 .663 2.018 2.68 2.68 0 0 0 3.136.671l4.538-2.062c.09.784.18 1.838.18 2.923 0 .526-.676 1.755-2.57 3.627-1.545 1.527-3.346 2.94-4.446 3.663-1.132.744-1.567 2.078-1.034 3.17.408.835 1.38 1.525 3 1.525.752 0 1.644-.148 2.683-.5 2.163-.732 5.266-2.049 7.764-4.165 2.847-2.412 4.291-5.3 4.291-8.584v-18.725a.913.913 0 0 0-.913-.913Zm-22.402 1.888.036-.03.116-.096a26.464 26.464 0 0 0 .474-.402l.111-.098c.062-.054.122-.108.182-.163l.093-.083c.089-.081.176-.163.262-.244l.02-.02c.08-.075.158-.15.235-.226l.082-.082.165-.165.09-.092a17.893 17.893 0 0 0 .386-.414l.075-.083c.061-.068.122-.138.182-.208l.032-.037c.07-.082.138-.164.205-.246l.053-.066.142-.18.066-.086c.103-.135.204-.273.302-.413l.059-.085.124-.186.039-.058c.053-.082.104-.164.154-.246l.028-.047c.04-.065.078-.131.115-.197l.046-.082a9.642 9.642 0 0 0 .215-.41l.043-.09a8.03 8.03 0 0 0 .078-.168l.034-.075c.035-.08.07-.162.102-.243l.004-.011c.03-.077.06-.154.087-.23.01-.026.018-.052.027-.079a7.232 7.232 0 0 0 .129-.408l.025-.091.04-.16.02-.082c.015-.067.028-.133.041-.2l.009-.04c.015-.08.028-.16.04-.24l.009-.07.017-.13c3.278 1.486 4.476 4.564 4.813 7.458l-.354-.25a.913.913 0 1 0-1.051 1.493l1.904 1.342.032.019c.012.008.024.017.037.024 1.87 1.08 1.655 4.466.868 7.207-.406.191-.927.48-1.597.916-1.2-3.84-3.558-8.56-9.446-11.147Z" fill-rule="evenodd" data-name="Path 16801"/></g></g></svg>