<svg xmlns="http://www.w3.org/2000/svg" width="27" height="27" viewBox="813 4240.95 27 27"><g data-name="CompositeLayer"><path d="M813 4254.4a13.5 13.5 0 1 1 0 .1z" fill="#fff" fill-rule="evenodd" data-name="Ellipse 22"/><path d="M821.117 4256.023h-2.69a.897.897 0 0 0-.898.897v2.692c0 .495.402.897.897.897h2.691a.897.897 0 0 0 .898-.897v-2.692a.897.897 0 0 0-.898-.897Zm-.672-2.242h5.382v1.345h1.346v-1.345h5.382v1.345h1.346v-1.614c0-.594-.483-1.077-1.077-1.077h-5.651v-1.794h1.121a.897.897 0 0 0 .897-.897v-2.692a.897.897 0 0 0-.897-.897h-3.588a.897.897 0 0 0-.897.897v2.692c0 .495.401.897.897.897h1.121v1.794h-5.651c-.594 0-1.077.483-1.077 1.077v1.614h1.346v-1.345Zm7.4 2.242h-2.69a.897.897 0 0 0-.898.897v2.692c0 .495.402.897.897.897h2.692a.897.897 0 0 0 .897-.897v-2.692a.897.897 0 0 0-.897-.897Zm6.729 0h-2.691a.897.897 0 0 0-.898.897v2.692c0 .495.402.897.898.897h2.69a.897.897 0 0 0 .898-.897v-2.692a.897.897 0 0 0-.897-.897Z" fill="#a1a1a1" fill-rule="evenodd" data-name="Icon awesome-sitemap"/></g></svg>