<svg xmlns="http://www.w3.org/2000/svg" width="44" height="45" viewBox="268 4214 44 45"><g data-name="CompositeLayer"><path d="M290 4214c12.15 0 22 10.073 22 22.5 0 12.426-9.85 22.5-22 22.5s-22-10.074-22-22.5c0-12.427 9.85-22.5 22-22.5Z" fill="#fff" fill-rule="evenodd" data-name="Path 16759"/><path d="M304.526 4227.147c-1.1.483-2.273.803-3.495.958a6.032 6.032 0 0 0 2.668-3.353 12.123 12.123 0 0 1-3.846 1.468 6.064 6.064 0 0 0-10.493 4.148c0 .481.04.944.14 1.384-5.043-.246-9.506-2.663-12.503-6.345a6.107 6.107 0 0 0-.83 3.066c0 2.1 1.081 3.963 2.694 5.041a5.99 5.99 0 0 1-2.74-.747v.067c0 2.948 2.102 5.396 4.86 5.96-.495.135-1.033.2-1.591.2-.389 0-.78-.022-1.149-.104.786 2.403 3.017 4.169 5.669 4.226a12.189 12.189 0 0 1-7.522 2.587c-.497 0-.974-.022-1.452-.083a17.078 17.078 0 0 0 9.306 2.722c11.163 0 17.266-9.246 17.266-17.261 0-.269-.01-.527-.022-.785a12.102 12.102 0 0 0 3.04-3.149Z" fill="#a1a1a1" fill-rule="evenodd" data-name="Path 3421"/><g data-name="twitter (7)"><g data-name="Group 4172"><path d="M304.526 4227.147c-1.1.483-2.273.803-3.495.958a6.032 6.032 0 0 0 2.668-3.353 12.123 12.123 0 0 1-3.846 1.468 6.064 6.064 0 0 0-10.493 4.148c0 .481.04.944.14 1.384-5.043-.246-9.506-2.663-12.503-6.345a6.107 6.107 0 0 0-.83 3.066c0 2.1 1.081 3.963 2.694 5.041a5.99 5.99 0 0 1-2.74-.747v.067c0 2.948 2.102 5.396 4.86 5.96-.495.135-1.033.2-1.591.2-.389 0-.78-.022-1.149-.104.786 2.403 3.017 4.169 5.669 4.226a12.189 12.189 0 0 1-7.522 2.587c-.497 0-.974-.022-1.452-.083a17.078 17.078 0 0 0 9.306 2.722c11.163 0 17.266-9.246 17.266-17.261 0-.269-.01-.527-.022-.785a12.102 12.102 0 0 0 3.04-3.149Z" fill="#a1a1a1" fill-rule="evenodd" data-name="Path 3421"/></g></g></g></svg>