<svg xmlns="http://www.w3.org/2000/svg" width="31.576" height="31.574" viewBox="0 0.001 31.576 31.574"><path d="M15.787.001C7.07.001 0 7.069 0 15.788c0 8.72 7.068 15.787 15.787 15.787 8.72 0 15.788-7.068 15.788-15.787 0-8.72-7.068-15.787-15.788-15.787Zm0 4.72a5.222 5.222 0 1 1 .001 10.445 5.222 5.222 0 0 1 0-10.444Zm-.003 22.727a11.587 11.587 0 0 1-7.545-2.783 2.225 2.225 0 0 1-.781-1.691c0-2.924 2.367-5.265 5.292-5.265h6.076a5.259 5.259 0 0 1 5.284 5.265 2.22 2.22 0 0 1-.78 1.69 11.583 11.583 0 0 1-7.546 2.784Z" fill="#d272a8" fill-rule="evenodd" data-name="Path 43"/></svg>